<?xml version="1.0" encoding="UTF-8"?>
<svg version="1.1" xmlns="http://www.w3.org/2000/svg" width="195" height="177">
<path d="M0 0 C64.35 0 128.7 0 195 0 C195 58.41 195 116.82 195 177 C130.65 177 66.3 177 0 177 C0 118.59 0 60.18 0 0 Z " fill="#0B0D15" transform="translate(0,0)"/>
<path d="M0 0 C41.57142857 0 41.57142857 0 52.9765625 10.88671875 C60.51565414 19.05139459 63.34474551 26.82744429 63.2109375 37.83984375 C62.53699107 47.93655964 58.08801787 56.56490083 50.5625 63.3125 C35.12830312 75.55809357 21.13542968 72 0 72 C0 48.24 0 24.48 0 0 Z " fill="#95E9F5" transform="translate(71,46)"/>
<path d="M0 0 C3 4.38461538 3 4.38461538 3 7 C1.0234375 8.55078125 1.0234375 8.55078125 -1.625 10.3125 C-19.60110887 22.63320383 -30.61878049 41.04733601 -35.3125 62.25 C-38.70821691 84.45276441 -34.01590594 106.75416519 -20.9375 125.125 C-19.64267268 126.76411667 -18.33161412 128.39062587 -17 130 C-16.48308594 130.68964844 -15.96617188 131.37929687 -15.43359375 132.08984375 C-4.22880468 146.2713437 14.89632572 155.47198291 32.3125 158.59375 C56.88561507 161.30095759 79.37185033 155.99237775 98.875 140.5625 C110.1757429 130.83360275 117.31347664 119.72889211 123 106 C123.29003906 105.33613281 123.58007812 104.67226562 123.87890625 103.98828125 C127.74527912 94.51014434 128.31862054 84.11310567 129 74 C131.31 74 133.62 74 136 74 C136.80359127 89.53609788 133.70886487 102.88961459 127 117 C126.59394531 117.88816406 126.18789062 118.77632813 125.76953125 119.69140625 C115.32860298 140.72635558 95.42656923 155.8118079 73.5625 163.4375 C50.32577794 170.78101369 25.19420072 168.4591354 3.64550781 157.28613281 C-19.34255078 144.6235148 -33.84083281 124.14340711 -42.171875 99.5390625 C-47.86464886 77.3587266 -44.24951876 52.17706833 -32.99609375 32.3671875 C-27.1909138 22.67866092 -12.1370786 0 0 0 Z " fill="#82DDEB" transform="translate(52,5)"/>
<path d="M0 0 C3.6578218 2.03993908 5.66946174 3.50419262 8 7 C8.48256365 11.26264558 8.26873267 13.49132744 6.25 17.3125 C3.04340948 21.14259424 1.50448865 21.83587397 -3.4375 22.375 C-7.62750939 21.93394638 -9.093893 20.98913863 -12 18 C-14.28853994 14.73065722 -14.47162218 11.9301848 -14 8 C-12.34976991 4.93528698 -10.943924 2.69221093 -8.125 0.625 C-5.18891172 -0.23855538 -3.05485074 -0.36658209 0 0 Z " fill="#20CAE4" transform="translate(146,116)"/>
</svg>
